<?xml version="1.0" encoding="UTF-8"?>
<svg id="Livello_1" data-name="Livello 1" xmlns="http://www.w3.org/2000/svg" viewBox="0 0 1000 1000">
  <defs>
    <style>
      .cls-1 {
        fill: none;
        stroke: #1d1d1b;
        stroke-miterlimit: 10;
        stroke-width: 14px;
      }
    </style>
  </defs>
  <g>
    <path d="M586.59,624.08c-22,63.94-75.71,107.43-148.35,107.43-92.59,0-158.58-69.06-158.58-162.16s65.99-162.67,158.58-162.67c38.04,0,79.99,11.85,114.53,32.14,.01-.23,.02-.47,.04-.7-.05-.94-.05-1.89-.02-2.83-.03-1.93-.09-3.85,.03-5.78-.35-10.76-.18-21.54-.1-32.32-34.54-17.86-74.62-27.34-114.47-27.34-114.08,0-198.48,86.96-198.48,199.5s84.41,198.99,198.48,198.99c91.57,0,162.16-57.81,188.25-144.26h-39.9Z"/>
    <path d="M587.92,419.94c.15,13.79,.49,27.57,.71,41.36,2.53,.89,3.6,3.76,2.99,6.03,1.06,1.21,1.96,2.54,2.52,4.07,7.75,8.3,14.36,17.22,19.43,26.72,.94-.28,1.97-.45,3.11-.45,6.52,0,9.76,5.09,9.72,10.15l18.74-5.35c-10.14-33.45-30.61-61.19-57.21-82.53Z"/>
  </g>
  <path d="M626.82,455.13c48.63-17.06,75.53-57.41,75.53-107.59,0-66.73-49.14-115.87-133.97-115.87h-136.57v387.97h38.8V267.88h100.36c65.69,0,91.04,38.78,91.04,79.66,0,38.56-21.09,65.79-74.07,72.4-.03,1.08,.12,9.29,.07,10.37,.11,.35,.19,.71,.19,1.09,.04,3.62,.4,7.19-.03,10.78,.05,1.1,.08,2.19,.08,3.27,0,2.63-.08,5.29-.15,7.96,.02,3.4,.04,6.79,.07,10.19l115.57,156.43h56.35l-133.27-164.89Z"/>
  <circle class="cls-1" cx="496.44" cy="507.82" r="443.3"/>
</svg>