<?xml version="1.0" encoding="UTF-8"?>
<svg id="Livello_1" data-name="Livello 1" xmlns="http://www.w3.org/2000/svg" viewBox="0 0 1000 1000">
  <g>
    <path d="M631.74,687.38c-33.26,96.68-114.47,162.43-224.3,162.43-140,0-239.77-104.42-239.77-245.19s99.78-245.96,239.77-245.96c57.52,0,120.95,17.92,173.16,48.59,.02-.35,.03-.7,.06-1.06-.08-1.43-.08-2.85-.03-4.28-.05-2.92-.14-5.82,.04-8.74-.53-16.27-.26-32.57-.15-48.87-52.22-27-112.82-41.33-173.09-41.33-172.48,0-300.1,131.49-300.1,301.65s127.62,300.88,300.1,300.88c138.45,0,245.19-87.4,284.64-218.12h-60.33Z"/>
    <path d="M633.75,378.72c.23,20.85,.74,41.69,1.07,62.54,3.83,1.35,5.45,5.69,4.52,9.11,1.6,1.84,2.96,3.84,3.81,6.15,11.72,12.55,21.72,26.04,29.38,40.4,1.42-.43,2.98-.67,4.7-.67,9.86,0,14.75,7.69,14.69,15.34l28.33-8.09c-15.33-50.57-46.28-92.52-86.51-124.78Z"/>
  </g>
  <path d="M692.57,431.93c73.53-25.8,114.19-86.8,114.19-162.68,0-100.9-74.3-175.2-202.57-175.2h-206.5V680.66h58.67V148.81h151.74c99.33,0,137.65,58.64,137.65,120.44,0,58.31-31.89,99.48-112,109.46-.05,1.63,.18,14.04,.1,15.67,.17,.53,.28,1.07,.29,1.65,.06,5.47,.6,10.87-.04,16.3,.08,1.66,.13,3.31,.13,4.95,0,3.98-.12,8.01-.22,12.04,.03,5.13,.06,10.27,.11,15.4l174.74,236.52h85.2l-201.5-249.32Z"/>
</svg>