<?xml version="1.0" encoding="UTF-8"?>
<svg id="Livello_1" data-name="Livello 1" xmlns="http://www.w3.org/2000/svg" viewBox="0 0 500 500">
  <defs>
    <style>
      .cls-1 {
        fill: #fff;
      }
    </style>
  </defs>
  <rect width="500" height="500"/>
  <path class="cls-1" d="M248.96,331.79c-5.7,4.36-10.56,8.38-15.76,11.98-14.33,9.97-28.16,20.7-43.25,29.42-28.16,16.18-57.24,14.42-85.49,.08-30.34-15.5-48.36-41.23-55.65-74.17-6.2-28.24-4.94-56.49,7.38-82.97,14.25-30.51,37.04-51.96,70.82-59.51,28.91-6.45,55.06-.75,77.27,19.78,1.76,1.59,4.36,2.35,6.62,3.44,.59-2.43,1.51-4.86,1.76-7.29,.34-2.26,.08-4.61,.08-6.87,4.19-1.17,5.28-.59,5.36,3.35,.08,15,.08,29.92,0,44.92,0,3.44-1.68,4.69-5.36,3.52,0-4.27-.08-8.46,0-12.74,.17-10.39-3.27-19.61-10.64-26.82-21.04-20.45-45.93-26.99-74.34-19.53-9.05,2.35-15.25,8.38-19.86,16.26-7.54,12.99-10.64,27.32-11.98,42.07-3.1,34.61-3.1,69.14,1.01,103.67,1.42,12.32,4.27,24.31,8.55,35.95,5.95,16.26,17.77,23.89,34.53,25.48,17.94,1.76,34.19-2.85,49.87-11.15,20.53-10.9,38.55-25.23,56.66-39.56,1.42-1.17,2.18-4.02,2.18-6.12,.08-36.04,.08-71.99,.08-108.03V124.61c0-13.16-2.43-15.59-15.67-15.59-5.53,0-10.98-.08-16.51,0-3.1,.08-3.86-1.34-2.77-4.53h5.2c43.83,0,87.67,.08,131.5,.08,33.02,0,54.14,14.33,65.54,45.43,10.22,27.83,5.36,53.47-12.66,76.77-2.68,3.44-5.36,6.96-7.88,10.56-2.35,3.27-1.59,6.37,1.59,8.55,23.3,15.76,32.35,39.22,36.29,65.62,2.18,14.92,1.68,29.84-.25,44.75-1.17,8.88,2.1,13.83,10.81,16.01,.84,.17,1.59,.34,2.43,.5,8.13,1.26,8.55,1.76,8.38,10.73h-71.32c0-11.9-.42-23.63,.25-35.37,.17-3.1,3.18-6.62,5.87-8.97,8.3-7.29,16.26-14.75,22.29-24.14,16.68-25.65,9.64-51.12-15.5-67.38-6.12-3.94-12.66-2.43-18.52,.42-24.14,11.57-47.86,23.97-69.48,40.06-5.62,4.19-11.4,8.13-17.1,12.15-3.6,2.51-5.53,5.87-5.45,10.48,.08,18.86-.17,37.63,0,56.49,.08,9.3,3.18,12.07,12.66,12.07,5.87,0,11.82-.08,17.68,.08,1.17,.08,2.35,1.51,3.52,2.26-1.17,.67-2.43,2.01-3.6,2.01-32.6,.08-65.12,.08-97.72,0-1.17,0-2.35-1.34-3.52-2.01,1.17-.75,2.35-2.18,3.52-2.26,6.45-.25,12.91,0,19.36-.17,7.21-.08,10.56-3.35,11.06-10.48,.08-1.26,.08-2.51,.08-3.69,.17-10.56,.17-21.46,.08-33.27h0Zm36.46-121.69h0v26.82c0,18.52-.08,37.13-.08,55.65,0,6.45,2.1,7.71,7.63,4.69,1.59-.84,3.1-1.76,4.53-2.77,8.8-6.03,17.6-12.24,26.4-18.19,12.15-8.21,23.55-17.18,31.85-29.5,18.44-27.41,26.99-57.75,25.9-90.68-.42-12.82-3.44-24.98-11.15-35.62-5.78-8.05-13.49-12.99-23.55-13.16-14.25-.17-28.58-.08-42.83,.17-9.64,.17-15.5,5.11-17.01,14.58-1.01,6.45-1.51,13.07-1.59,19.7-.17,22.71-.08,45.51-.08,68.31h0Z"/>
</svg>