<?xml version="1.0" encoding="UTF-8"?>
<svg id="Livello_2" data-name="Livello 2" xmlns="http://www.w3.org/2000/svg" viewBox="0 0 237.45 306.34">
  <g id="Livello_1-2" data-name="Livello 1">
    <path d="M222.63,14.5c5.41-1.36,7.13,.22,7.08,5.07-.21,19.99-.21,39.99,0,59.98,.05,4.93-1.81,6.33-7.03,5.05,0-4.68-.21-9.62,.04-14.53,.92-18.24-6.47-32.9-20.09-44.26C176.35,3.86,146.02-2.91,112.76,4.3c-16.47,3.57-27.28,14.6-34.24,29.61-7.75,16.71-10.9,34.59-12.66,52.69-4.33,44.4-4.49,88.86,.13,133.22,1.37,13.17,3.9,26.42,7.62,39.12,9.28,31.66,25.63,44.18,58.63,45.6,22.35,.96,43.38-4.35,62.29-16.46,5.95-3.81,11.33-8.77,16.22-13.91,7.81-8.2,15.01-16.97,22.41-25.54,1.02-1.18,1.76-2.6,2.63-3.91,.55,.48,1.1,.96,1.64,1.45-.88,1.2-1.67,2.47-2.64,3.59-7.75,8.93-15.31,18.06-23.37,26.71-15.27,16.39-34.7,25.2-56.46,28.51-54.72,8.32-110.78-22.01-137.25-73.94C1.56,199.29-2.45,165.44,1.31,130.43c2.73-25.41,10.34-49.31,25.25-70.22C54.96,20.35,93.34-1.21,142.94,.05c25.48,.65,47.28,11.38,66.42,27.84,1.77,1.52,3.32,3.36,5.25,4.6,1.69,1.09,4.34,2.62,5.55,1.99,1.4-.73,2.23-3.56,2.37-5.54,.33-4.78,.11-9.59,.11-14.45Z"/>
  </g>
</svg>