<?xml version="1.0" encoding="utf-8"?>
<!-- Generator: Adobe Illustrator 27.0.0, SVG Export Plug-In . SVG Version: 6.00 Build 0)  -->
<svg version="1.1" id="Livello_1" xmlns="http://www.w3.org/2000/svg" xmlns:xlink="http://www.w3.org/1999/xlink" x="0px" y="0px"
	 viewBox="0 0 500 500" style="enable-background:new 0 0 500 500;" xml:space="preserve">
<path d="M247.5,354.7c-6.8,5.2-12.6,10-18.8,14.3c-17.1,11.9-33.6,24.7-51.6,35.1c-33.6,19.3-68.3,17.2-102,0.1
	C38.9,385.7,17.4,355,8.7,315.7c-7.4-33.7-5.9-67.4,8.8-99c17-36.4,44.2-62,84.5-71c34.5-7.7,65.7-0.9,92.2,23.6
	c2.1,1.9,5.2,2.8,7.9,4.1c0.7-2.9,1.8-5.8,2.1-8.7c0.4-2.7,0.1-5.5,0.1-8.2c5-1.4,6.3-0.7,6.4,4c0.1,17.9,0.1,35.7,0,53.6
	c0,4.1-2,5.6-6.4,4.2c0-5.1-0.1-10.1,0-15.2c0.2-12.4-3.9-23.4-12.7-32c-25.1-24.4-54.8-32.2-88.7-23.3c-10.8,2.8-18.2,10-23.7,19.4
	c-9,15.5-12.7,32.6-14.3,50.2c-3.7,41.3-3.7,82.5,1.2,123.7c1.7,14.7,5.1,29,10.2,42.9c7.1,19.4,21.2,28.5,41.2,30.4
	c21.4,2.1,40.8-3.4,59.5-13.3c24.5-13,46-30.1,67.6-47.2c1.7-1.4,2.6-4.8,2.6-7.3c0.1-43,0.1-85.9,0.1-128.9c0-36.7,0-73.5,0-110.2
	c0-15.7-2.9-18.6-18.7-18.6c-6.6,0-13.1-0.1-19.7,0c-3.7,0.1-4.6-1.6-3.3-5.4c2,0,4.1,0,6.2,0c52.3,0,104.6,0.1,156.9,0.1
	c39.4,0,64.6,17.1,78.2,54.2c12.2,33.2,6.4,63.8-15.1,91.6c-3.2,4.1-6.4,8.3-9.4,12.6c-2.8,3.9-1.9,7.6,1.9,10.2
	c27.8,18.8,38.6,46.8,43.3,78.3c2.6,17.8,2,35.6-0.3,53.4c-1.4,10.6,2.5,16.5,12.9,19.1c1,0.2,1.9,0.4,2.9,0.6
	c9.7,1.5,10.2,2.1,10,12.8H408c0-14.2-0.5-28.2,0.3-42.2c0.2-3.7,3.8-7.9,7-10.7c9.9-8.7,19.4-17.6,26.6-28.8
	c19.9-30.6,11.5-61-18.5-80.4c-7.3-4.7-15.1-2.9-22.1,0.5c-28.8,13.8-57.1,28.6-82.9,47.8c-6.7,5-13.6,9.7-20.4,14.5
	c-4.3,3-6.6,7-6.5,12.5c0.1,22.5-0.2,44.9,0,67.4c0.1,11.1,3.8,14.4,15.1,14.4c7,0,14.1-0.1,21.1,0.1c1.4,0.1,2.8,1.8,4.2,2.7
	c-1.4,0.8-2.9,2.4-4.3,2.4c-38.9,0.1-77.7,0.1-116.6,0c-1.4,0-2.8-1.6-4.2-2.4c1.4-0.9,2.8-2.6,4.2-2.7c7.7-0.3,15.4,0,23.1-0.2
	c8.6-0.1,12.6-4,13.2-12.5c0.1-1.5,0.1-3,0.1-4.4C247.6,381.8,247.6,368.8,247.5,354.7L247.5,354.7z M291,209.5L291,209.5
	c0,10.6,0,21.3,0,32c0,22.1-0.1,44.3-0.1,66.4c0,7.7,2.5,9.2,9.1,5.6c1.9-1,3.7-2.1,5.4-3.3c10.5-7.2,21-14.6,31.5-21.7
	c14.5-9.8,28.1-20.5,38-35.2c22-32.7,32.2-68.9,30.9-108.2c-0.5-15.3-4.1-29.8-13.3-42.5c-6.9-9.6-16.1-15.5-28.1-15.7
	c-17-0.2-34.1-0.1-51.1,0.2c-11.5,0.2-18.5,6.1-20.3,17.4c-1.2,7.7-1.8,15.6-1.9,23.5C290.9,155.1,291,182.3,291,209.5L291,209.5z"
	/>
</svg>
