<?xml version="1.0" encoding="UTF-8"?>
<svg id="Livello_1" data-name="Livello 1" xmlns="http://www.w3.org/2000/svg" viewBox="0 0 500 500">
  <defs>
    <style>
      .cls-1 {
        fill: #fff;
      }
    </style>
  </defs>
  <path class="cls-1" d="M247.5,354.7c-6.8,5.2-12.6,10-18.8,14.3-17.1,11.9-33.6,24.7-51.6,35.1-33.6,19.3-68.3,17.2-102,.1-36.2-18.5-57.7-49.2-66.4-88.5-7.4-33.7-5.9-67.4,8.8-99,17-36.4,44.2-62,84.5-71,34.5-7.7,65.7-.9,92.2,23.6,2.1,1.9,5.2,2.8,7.9,4.1,.7-2.9,1.8-5.8,2.1-8.7,.4-2.7,.1-5.5,.1-8.2,5-1.4,6.3-.7,6.4,4,.1,17.9,.1,35.7,0,53.6,0,4.1-2,5.6-6.4,4.2,0-5.1-.1-10.1,0-15.2,.2-12.4-3.9-23.4-12.7-32-25.1-24.4-54.8-32.2-88.7-23.3-10.8,2.8-18.2,10-23.7,19.4-9,15.5-12.7,32.6-14.3,50.2-3.7,41.3-3.7,82.5,1.2,123.7,1.7,14.7,5.1,29,10.2,42.9,7.1,19.4,21.2,28.5,41.2,30.4,21.4,2.1,40.8-3.4,59.5-13.3,24.5-13,46-30.1,67.6-47.2,1.7-1.4,2.6-4.8,2.6-7.3,.1-43,.1-85.9,.1-128.9V107.5c0-15.7-2.9-18.6-18.7-18.6-6.6,0-13.1-.1-19.7,0-3.7,.1-4.6-1.6-3.3-5.4h6.2c52.3,0,104.6,.1,156.9,.1,39.4,0,64.6,17.1,78.2,54.2,12.2,33.2,6.4,63.8-15.1,91.6-3.2,4.1-6.4,8.3-9.4,12.6-2.8,3.9-1.9,7.6,1.9,10.2,27.8,18.8,38.6,46.8,43.3,78.3,2.6,17.8,2,35.6-.3,53.4-1.4,10.6,2.5,16.5,12.9,19.1,1,.2,1.9,.4,2.9,.6,9.7,1.5,10.2,2.1,10,12.8h-85.1c0-14.2-.5-28.2,.3-42.2,.2-3.7,3.8-7.9,7-10.7,9.9-8.7,19.4-17.6,26.6-28.8,19.9-30.6,11.5-61-18.5-80.4-7.3-4.7-15.1-2.9-22.1,.5-28.8,13.8-57.1,28.6-82.9,47.8-6.7,5-13.6,9.7-20.4,14.5-4.3,3-6.6,7-6.5,12.5,.1,22.5-.2,44.9,0,67.4,.1,11.1,3.8,14.4,15.1,14.4,7,0,14.1-.1,21.1,.1,1.4,.1,2.8,1.8,4.2,2.7-1.4,.8-2.9,2.4-4.3,2.4-38.9,.1-77.7,.1-116.6,0-1.4,0-2.8-1.6-4.2-2.4,1.4-.9,2.8-2.6,4.2-2.7,7.7-.3,15.4,0,23.1-.2,8.6-.1,12.6-4,13.2-12.5,.1-1.5,.1-3,.1-4.4,.2-12.6,.2-25.6,.1-39.7h0Zm43.5-145.2h0v32c0,22.1-.1,44.3-.1,66.4,0,7.7,2.5,9.2,9.1,5.6,1.9-1,3.7-2.1,5.4-3.3,10.5-7.2,21-14.6,31.5-21.7,14.5-9.8,28.1-20.5,38-35.2,22-32.7,32.2-68.9,30.9-108.2-.5-15.3-4.1-29.8-13.3-42.5-6.9-9.6-16.1-15.5-28.1-15.7-17-.2-34.1-.1-51.1,.2-11.5,.2-18.5,6.1-20.3,17.4-1.2,7.7-1.8,15.6-1.9,23.5-.2,27.1-.1,54.3-.1,81.5h0Z"/>
</svg>